# AST/ASF file generated using VICON BodyLanguage
# -----------------------------------------------
:version 1.10
:name VICON
:units
  mass 1.0
  length 0.45
  angle deg
:documentation
   .ast/.asf automatically generated from VICON data using
   VICON BodyBuilder and BodyLanguage model FoxedUp or BRILLIANT.MOD
:root
   order TX TY TZ RX RY RZ
   axis XYZ
   position 0 0 0  
   orientation 0 0 0 
:bonedata
  begin
     id 1 
     name lhipjoint
     direction 0.537252 -0.787203 0.302774 
     length 2.29576 
     axis 0 0 0  XYZ
  end
  begin
     id 2 
     name lfemur
     direction 0.34202 -0.939693 0  
     length 7.31114  
     axis 0 0 20  XYZ
    dof rx ry rz
    limits (-160.0 20.0)
           (-70.0 70.0)
           (-60.0 70.0)
  end
  begin
     id 3 
     name ltibia
     direction 0.34202 -0.939693 0   
     length 8.36008   
     axis 0 0 20   XYZ
    dof rx
    limits (-10.0 170.0)
  end
  begin
     id 4 
     name lfoot
     direction 0.0969116 -0.266263 0.959016   
     length 2.16704   
     axis -90 7.62852e-016 20   XYZ
    dof rx rz
    limits (-45.0 90.0)
           (-70.0 20.0)
  end
  begin
     id 5 
     name ltoes
     direction 1.53563e-011 -4.21779e-011 1   
     length 1.08338   
     axis -90 7.62852e-016 20   XYZ
    dof rx
    limits (-90.0 20.0)
  end
  begin
     id 6 
     name rhipjoint
     direction -0.588228 -0.754791 0.290308   
     length 2.39434  
     axis 0 0 0  XYZ 
  end
  begin
     id 7 
     name rfemur
     direction -0.34202 -0.939693 0   
     length 7.45207   
     axis 0 0 -20   XYZ
    dof rx ry rz
    limits (-160.0 20.0)
           (-70.0 70.0)
           (-70.0 60.0)
  end
  begin
     id 8 
     name rtibia
     direction -0.34202 -0.939693 0   
     length 8.03565   
     axis 0 0 -20   XYZ
    dof rx
    limits (-10.0 170.0)
 end
 begin
     id 9 
     name rfoot
     direction -0.107009 -0.294004 0.949795   
     length 2.11509  
     axis -90 -7.62852e-016 -20   XYZ
    dof rx rz
    limits (-45.0 90.0)
           (-20.0 70.0)
  end
  begin
     id 10 
     name rtoes
     direction -1.53533e-011 -4.22004e-011 1   
     length 1.05493   
     axis -90 -7.62852e-016 -20   XYZ
    dof rx
    limits (-90.0 20.0)
  end
  begin
     id 11 
     name lowerback
     direction -0.0115208 0.997969 -0.0626515   
     length 2.03153   
     axis 0 0 0   XYZ
    dof rx ry rz
    limits (-20.0 45.0)
           (-30.0 30.0)
           (-30.0 30.0)
  end
  begin
     id 12 
     name upperback
     direction -0.00423475 0.999974 -0.00583614   
     length 2.03619   
     axis 0 0 0   XYZ
    dof rx ry rz
    limits (-20.0 45.0)
           (-30.0 30.0)
           (-30.0 30.0)
  end
  begin
     id 13 
     name thorax
     direction 0.00289429 0.999728 0.0231573   
     length 2.03921   
     axis 0 0 0   XYZ
    dof rx ry rz
    limits (-20.0 45.0)
           (-30.0 30.0)
           (-30.0 30.0)
  end
  begin
     id 14 
     name lowerneck
     direction 0.0188995 0.987777 0.154721   
     length 1.78836   
     axis 0 0 0   XYZ
    dof rx ry rz
    limits (-20.0 45.0)
           (-30.0 30.0)
           (-30.0 30.0)
  end
  begin
     id 15 
     name upperneck
     direction -0.00612612 0.992995 -0.118   
     length 1.81789   
     axis 0 0 0   XYZ
    dof rx ry rz
    limits (-20.0 45.0)
           (-30.0 30.0)
           (-30.0 30.0)
  end
  begin
     id 16
     name head
     direction -0.00420226 0.998397 -0.0564482  
     length 1.82234  
     axis 0 0 0   XYZ
    dof rx ry rz
    limits (-20.0 45.0)
           (-30.0 30.0)
           (-30.0 30.0)
  end
  begin
     id 17 
     name lclavicle
     direction 0.916488 0.396539 0.0529676  
     length 3.51732  
     axis 0 0 0   XYZ
    dof ry rz
    limits (-20.0 10.0)
           (0.0 20.0)
  end
  begin
     id 18 
     name lhumerus
     direction 1 -4.4896e-011 8.36962e-028   
     length 5.45077   
     axis 180 -30 -90   XYZ
    dof rx ry rz
    limits (-60.0 90.0)
           (-90.0 90.0)
           (-90.0 90.0)
  end
  begin
     id 19
     name lradius
     direction 1 -4.48962e-011 3.01407e-027   
     length 3.05488   
     axis 180 -30 -90   XYZ
    dof rx
    limits (-10.0 170.0)
  end
  begin
     id 20
     name lwrist
     direction 1 -4.49002e-011 4.72961e-027   
     length 1.52744   
     axis -2.72261e-015 90 90   XYZ
    dof ry
    limits (-180.0 0.0)
 end
  begin
     id 21 
     name lhand
     direction 1 -4.4899e-011 9.45681e-027   
     length 0.638818   
     axis -6.0311e-015 90 90   XYZ
    dof rx rz
    limits (-90.0 90.0)
           (-45.0 45.0)
  end
  begin
     id 22 
     name lfingers
     direction 1 -4.48871e-011 1.88632e-026   
     length 0.515032   
     axis -1.20625e-014 90 90   XYZ
    dof rx
    limits (0.0 90.0)
  end
  begin
     id 23
     name lthumb
     direction 0.707107 -6.34964e-011 0.707107   
     length 0.739485   
     axis -90 45 6.32835e-014   XYZ
    dof rx rz
    limits (-45.0 45.0)
           (-45.0 45.0)
  end
  begin
     id 24 
     name rclavicle
     direction -0.949427 0.303202 0.0815894   
     length 3.76167  
     axis 0 0 0   XYZ 
    dof ry rz
    limits (-10.0 20.0)
           (-20.0 0.0)
  end
  begin
     id 25 
     name rhumerus
     direction -1 -4.48971e-011 -6.43969e-018  
     length 4.88702   
     axis 180 30 90   XYZ
    dof rx ry rz
    limits (-90.0 60.0)
           (-90.0 90.0)
           (-90.0 90.0)
  end
  begin
     id 26 
     name rradius
     direction -1 -4.48987e-011 5.46662e-027   
     length 3.22603   
     axis 180 30 90   XYZ
    dof rx
    limits (-10.0 170.0)
  end
  begin
     id 27 
     name rwrist
     direction -1 -4.48956e-011 4.72476e-027   
     length 1.61302   
     axis -2.72261e-015 -90 -90   XYZ
    dof ry
    limits (-180.0 0.0)
  end
  begin
     id 28
     name rhand
     direction -1 -4.4889e-011 9.43571e-027   
     length 0.716293   
     axis -6.0311e-015 -90 -90   XYZ
    dof rx rz
    limits (-90.0 90.0)
           (-45.0 45.0)
  end
  begin
     id 29
     name rfingers
     direction -1 -4.48887e-011 1.88701e-026   
     length 0.577494   
     axis -1.20625e-014 -90 -90   XYZ
    dof rx
    limits (0.0 90.0)
  end
  begin
     id 30
     name rthumb
     direction -0.707107 -6.34825e-011 0.707107   
     length 0.829169   
     axis -90 -45 -6.32835e-014   XYZ
    dof rx rz
    limits (-45.0 45.0)
           (-45.0 45.0)
  end
:hierarchy
  begin
    root lhipjoint rhipjoint lowerback
    lhipjoint lfemur
    lfemur ltibia
    ltibia lfoot
    lfoot ltoes
    rhipjoint rfemur
    rfemur rtibia
    rtibia rfoot
    rfoot rtoes
    lowerback upperback
    upperback thorax
    thorax lowerneck lclavicle rclavicle
    lowerneck upperneck
    upperneck head
    lclavicle lhumerus
    lhumerus lradius
    lradius lwrist
    lwrist lhand lthumb
    lhand lfingers
    rclavicle rhumerus
    rhumerus rradius
    rradius rwrist
    rwrist rhand rthumb
    rhand rfingers
  end

#!OML:ASF F:\VICON\USERDATA\INSTALL\rory3\rory3.ASF
:FULLY-SPECIFIED
:DEGREES
228
root 1.38903 18.5492 0.632086 161.544 86.581 149.579
lowerback -10.0473 -0.991252 -1.59417
upperback -3.18555 -0.99359 -1.52585
thorax 2.32108 -0.446252 -0.797793
lowerneck -16.6767 -1.77208 0.652968
upperneck 27.3548 -4.36444 7.31941
head 11.9286 -0.716255 2.01395
rclavicle 2.96313e-015 -1.07344e-014
rhumerus 14.6824 13.8852 -47.8139
rradius 128.101
rwrist -50.81
rhand -8.45825 8.4848
rfingers 7.12502
rthumb 17.4679 -20.7504
lclavicle 2.96313e-015 -1.07344e-014
lhumerus -38.0537 -13.946 85.8967
lradius 39.3946
lwrist 14.6713
lhand -10.1665 25.0219
lfingers 7.12502
lthumb 15.8233 54.3953
rfemur -6.53461 -23.2927 18.8064
rtibia 2.38542e-015
rfoot -1.17807 18.8511
rtoes -10.261
lfemur -15.2713 7.03674 -18.4575
ltibia 15.4924
lfoot -11.295 -2.92691
ltoes -28.4004
229
root 1.38716 18.5486 0.631867 161.262 86.5963 149.31
lowerback -10.1226 -0.982244 -1.60269
upperback -3.15533 -0.978957 -1.5163
thorax 2.39419 -0.439497 -0.783005
lowerneck -16.5675 -1.73708 0.628281
upperneck 27.6604 -4.33163 7.41307
head 12.0286 -0.676189 2.068
rclavicle -1.21756e-015 -9.14409e-015
rhumerus 15.3501 12.8226 -48.1018
rradius 127.98
rwrist -51.5148
rhand -8.7877 8.61399
rfingers 7.12502
rthumb 17.1508 -20.6491
lclavicle -1.21756e-015 -9.14409e-015
lhumerus -38.0482 -13.952 85.9647
lradius 39.3598
lwrist 14.6149
lhand -10.1577 25.0275
lfingers 7.12502
lthumb 15.8318 54.4002
rfemur -7.04814 -23.2441 18.9477
rtibia 0.865783
rfoot -1.55096 18.9494
rtoes -9.88557
lfemur -15.2439 7.04406 -18.4661
ltibia 15.4621
lfoot -11.2813 -2.87079
ltoes -28.56
230
root 1.38656 18.5484 0.631872 160.776 86.6273 148.852
lowerback -10.1639 -0.972791 -1.62626
upperback -3.13633 -0.962961 -1.51349
thorax 2.43702 -0.431868 -0.765837
lowerneck -16.5758 -1.72661 0.724383
upperneck 28.1309 -4.33399 7.33851
head 12.2132 -0.651551 2.03695
rclavicle -2.67117e-015 -6.75868e-015
rhumerus 15.9028 11.8955 -48.3739
rradius 127.9
rwrist -52.156
rhand -9.23444 8.67729
rfingers 7.12502
rthumb 16.7208 -20.6226
lclavicle -2.67117e-015 -6.75868e-015
lhumerus -38.0674 -13.9705 86.0137
lradius 39.369
lwrist 14.6781
lhand -10.2182 25.0557
lfingers 7.12502
lthumb 15.7735 54.433
rfemur -6.94547 -23.2096 18.8975
rtibia 0.753661
rfoot -1.5138 18.941
rtoes -9.93221
lfemur -15.2043 6.98714 -18.4673
ltibia 15.4598
lfoot -11.3002 -2.78022
ltoes -28.2008
231
root 1.38655 18.5486 0.630608 160.461 86.6806 148.592
lowerback -10.1709 -0.940534 -1.59671
upperback -3.09401 -0.923144 -1.5272
thorax 2.48409 -0.412985 -0.792396
lowerneck -16.6906 -1.7211 0.985027
upperneck 28.648 -4.35146 7.0972
head 12.433 -0.634162 1.91235
rclavicle -4.72114e-016 1.03368e-014
rhumerus 16.5015 11.0056 -48.656
rradius 127.836
rwrist -52.7923
rhand -9.68093 8.56864
rfingers 7.12502
rthumb 16.2909 -20.767
lclavicle -4.72114e-016 1.03368e-014
lhumerus -37.9739 -13.9809 85.9886
lradius 39.2477
lwrist 14.7184
lhand -10.1915 25.0175
lfingers 7.12502
lthumb 15.7992 54.3927
rfemur -6.43856 -23.1773 18.7449
rtibia 2.22639e-014
rfoot -1.2034 18.8162
rtoes -10.3725
lfemur -15.1343 6.98551 -18.452
ltibia 15.473
lfoot -11.2785 -2.73557
ltoes -27.7733
232
root 1.38682 18.5498 0.631291 160.102 86.7464 148.255
lowerback -10.2041 -0.897118 -1.56036
upperback -3.05824 -0.867501 -1.55549
thorax 2.53857 -0.385941 -0.836264
lowerneck -16.7122 -1.72758 1.08996
upperneck 28.9951 -4.39995 7.10175
head 12.5791 -0.623086 1.89929
rclavicle -8.11911e-015 -3.18055e-015
rhumerus 17.0326 10.1215 -48.9317
rradius 127.831
rwrist -53.4146
rhand -9.9573 8.18433
rfingers 7.12502
rthumb 16.0248 -21.1729
lclavicle -8.11911e-015 -3.18055e-015
lhumerus -37.909 -14.1704 86.0177
lradius 39.15
lwrist 14.8502
lhand -10.2462 25.1738
lfingers 7.12502
lthumb 15.7466 54.5532
rfemur -6.42631 -23.1072 18.7466
rtibia 9.54166e-015
rfoot -1.19145 18.804
rtoes -10.5011
lfemur -15.1026 7.11877 -18.4547
ltibia 15.4972
lfoot -11.2357 -2.77891
ltoes -27.4002
